####
#
# OBJ File Generated by Meshlab
#
####
# Object 20facestar.obj
#
# Vertices: 12
# Faces: 20
#
####
vn -0.9510565 0.0000179 -0.3090171
v 0.9510560 0.0000000 0.3090170
vn 0.0000003 0.0000179 -1.0000000
v -0.0000010 0.0000000 1.0000000
vn 0.9510571 0.0000179 -0.3090155
v -0.9510570 0.0000000 0.3090160
vn 0.5877837 0.0000180 0.8090182
v -0.5877840 0.0000000 -0.8090180
vn -0.5877849 0.0000180 0.8090173
v 0.5877870 0.0000000 -0.8090160
vn -0.0000019 0.0000035 1.0000000
v 0.0000050 0.0000000 -2.6188071
vn 0.9510560 0.0000007 0.3090187
v -2.4906330 0.0000000 -0.8092600
vn 0.5877863 -0.0000004 -0.8090163
v -1.5392990 0.0000000 2.1186581
vn -0.5877857 0.0000065 -0.8090167
v 1.5392960 0.0000000 2.1186600
vn -0.9510562 0.0000018 0.3090178
v 2.4906340 0.0000000 -0.8092560
vn -0.0000000 -1.0000000 -0.0000001
v -0.0000000 0.3540230 -0.0000000
vn -0.0000000 1.0000000 -0.0000001
v -0.0000000 -0.3540000 -0.0000000
# 12 vertices, 0 vertices normals

f 4//4 6//6 11//11
f 4//4 11//11 7//7
f 3//3 7//7 11//11
f 3//3 11//11 8//8
f 2//2 8//8 11//11
f 2//2 11//11 9//9
f 1//1 9//9 11//11
f 1//1 11//11 10//10
f 5//5 10//10 11//11
f 5//5 11//11 6//6
f 5//5 6//6 12//12
f 5//5 12//12 10//10
f 1//1 10//10 12//12
f 1//1 12//12 9//9
f 2//2 9//9 12//12
f 2//2 12//12 8//8
f 3//3 8//8 12//12
f 3//3 12//12 7//7
f 4//4 7//7 12//12
f 4//4 12//12 6//6
# 20 faces, 0 coords texture

# End of File
