####
#
# OBJ File Generated by Meshlab
#
####
# Object tri-pyramid.obj
#
# Vertices: 4
# Faces: 4
#
####
vn 0.8134844 -0.4696285 -0.3430630
v 0.0300030 -0.0173200 0.1000000
vn 0.4295241 -0.7440023 -0.5118297
v -0.0300030 -0.0173200 0.1000000
vn 0.8590597 0.0000000 -0.5118755
v -0.0000000 0.0346400 0.1000000
vn 0.8542118 -0.4932443 0.1644148
v -0.0000000 -0.0000000 0.1519600
# 4 vertices, 0 vertices normals

f 1//1 2//2 3//3
f 2//2 3//3 4//4
f 4//4 2//2 1//1
f 4//4 1//1 3//3
# 4 faces, 0 coords texture

# End of File
